<svg width="151" height="86" viewBox="0 0 151 86" fill="none" xmlns="http://www.w3.org/2000/svg">
<g clip-path="url(#clip0_34_294)">
<path d="M0.437166 33.8725C1.95043 35.3528 4.46294 36.7945 7.45584 36.7945C10.4487 36.7945 12.7979 34.996 12.7979 32.1512C12.7979 29.4703 11.4816 27.8309 6.93701 26.5869C2.868 25.4683 0.638935 22.9851 0.638935 19.7063C0.638935 16.4276 3.4685 13.7033 7.85458 13.7033C10.1653 13.7033 12.5193 14.7062 13.8356 15.7043L13.3552 17.5848C11.7602 16.4661 9.56961 15.6657 7.85458 15.6657C4.74637 15.6657 2.868 17.3485 2.868 19.7063C2.868 21.6688 3.98253 23.3901 7.85458 24.4268C12.5193 25.666 15.0318 27.99 15.0318 31.8715C15.0318 36.4328 11.1645 38.7569 7.45584 38.7569C3.98734 38.7569 1.3163 37.3538 0 36.076L0.437166 33.8725Z" fill="#094952"/>
<path d="M25.5959 38.7955C21.3299 38.7955 18.2217 35.4347 18.2217 31.3941C18.2217 27.3536 21.3299 24.0314 25.5959 24.0314C29.8618 24.0314 32.97 27.3536 32.97 31.3941C32.97 35.4347 29.9003 38.7955 25.5959 38.7955ZM25.5959 25.7913C22.5645 25.7913 20.2538 28.072 20.2538 31.3941C20.2538 34.7163 22.5645 37.0355 25.5959 37.0355C28.6272 37.0355 30.9379 34.6729 30.9379 31.3941C30.9379 28.1154 28.6656 25.7913 25.5959 25.7913Z" fill="#094952"/>
<path d="M39.1141 24.5859V32.4694C39.1141 35.753 40.4689 36.9102 42.7412 36.9102C45.0135 36.9102 47.526 34.6295 47.526 32.2283V24.5859H49.5581V38.2313H47.7662L47.6461 35.671C46.6901 37.3924 44.4562 38.7521 42.1839 38.7521C38.7154 38.7521 37.082 36.51 37.082 32.7105V24.5859H39.1141Z" fill="#094952"/>
<path d="M54.665 38.2362V14.224H56.6971V38.2362H54.665Z" fill="#094952"/>
<path d="M94.7399 33.8725C96.2532 35.3528 98.7657 36.7945 101.759 36.7945C104.751 36.7945 107.101 34.996 107.101 32.1512C107.101 29.4703 105.784 27.8309 101.24 26.5869C97.1707 25.4683 94.9417 22.9851 94.9417 19.7063C94.9417 16.4276 97.7712 13.7033 102.157 13.7033C104.468 13.7033 106.822 14.7062 108.138 15.7043L107.658 17.5848C106.063 16.4661 103.872 15.6657 102.157 15.6657C99.0491 15.6657 97.1755 17.3485 97.1755 19.7063C97.1755 21.6688 98.2901 23.3901 102.157 24.4268C106.822 25.666 109.335 27.99 109.335 31.8715C109.335 36.4328 105.467 38.7569 101.759 38.7569C98.2901 38.7569 95.619 37.3538 94.3027 36.076L94.7399 33.8725Z" fill="#094952"/>
<path d="M119.899 38.7955C115.633 38.7955 112.524 35.4347 112.524 31.3941C112.524 27.3536 115.633 24.0314 119.899 24.0314C124.165 24.0314 127.273 27.3536 127.273 31.3941C127.273 35.4347 124.203 38.7955 119.899 38.7955ZM119.899 25.7913C116.867 25.7913 114.557 28.072 114.557 31.3941C114.557 34.7163 116.867 37.0355 119.899 37.0355C122.93 37.0355 125.241 34.6729 125.241 31.3941C125.241 28.1154 122.968 25.7913 119.899 25.7913Z" fill="#094952"/>
<path d="M133.417 24.5859V32.4694C133.417 35.753 134.772 36.9102 137.044 36.9102C139.317 36.9102 141.829 34.6295 141.829 32.2283V24.5859H143.861V38.2313H142.069L141.949 35.671C140.993 37.3924 138.759 38.7521 136.487 38.7521C133.019 38.7521 131.385 36.51 131.385 32.7105V24.5859H133.417Z" fill="#094952"/>
<path d="M148.968 38.2362V14.224H151V38.2362H148.968Z" fill="#094952"/>
<path d="M25.7832 77.4849H28.3389C31.5432 77.4849 32.9316 79.346 32.9316 81.6219C32.9316 83.8977 31.5432 85.7589 28.3389 85.7589H25.7832V77.48V77.4849ZM28.3534 84.7994C31.034 84.7994 31.7882 83.2806 31.7882 81.6267C31.7882 79.9729 31.034 78.454 28.3534 78.454H26.8833V84.7994H28.3534Z" fill="#094952"/>
<path d="M36.0542 77.4849H41.0456V78.4106H37.1543V80.9372H40.3586V81.863H37.1543V84.8428H41.0456V85.7686H36.0542V77.4897V77.4849Z" fill="#094952"/>
<path d="M43.8798 84.9392L44.1248 83.917C44.6196 84.4571 45.4459 85.0501 46.6277 85.0501C47.6029 85.0501 48.362 84.5004 48.362 83.6036C48.362 82.7598 47.9488 82.2921 46.4115 81.8774C44.8598 81.4628 44.1152 80.6238 44.1152 79.4618C44.1152 78.2997 45.076 77.3113 46.767 77.3113C47.7134 77.3113 48.5541 77.697 49.0057 78.0683L48.7559 78.9362C48.2082 78.536 47.4348 78.2033 46.7622 78.2033C45.7293 78.2033 45.1385 78.6855 45.1385 79.4569C45.1385 80.05 45.5084 80.5466 46.8006 80.8938C48.5733 81.3615 49.3852 82.1378 49.3852 83.5024C49.3852 85.1176 48.0401 85.947 46.6229 85.947C45.2057 85.947 44.3266 85.4069 43.875 84.9392H43.8798Z" fill="#094952"/>
<path d="M52.5127 77.4849H53.6128V85.7637H52.5127V77.4849Z" fill="#094952"/>
<path d="M56.7305 81.6267C56.7305 78.9507 58.7386 77.3065 61.1165 77.3065C62.159 77.3065 63.288 77.6536 63.9749 78.1744V79.3171C63.3024 78.7096 62.3944 78.2274 61.1165 78.2274C59.219 78.2274 57.8738 79.5534 57.8738 81.6219C57.8738 83.6904 59.219 85.0694 61.1165 85.0694C61.9284 85.0694 62.6682 84.9055 63.2207 84.5872V82.7116H61.5297V81.7858H64.3208V85.1273C63.8692 85.3201 62.6442 85.9952 61.1165 85.9952C58.7386 85.9952 56.7305 84.2979 56.7305 81.6219V81.6267Z" fill="#094952"/>
<path d="M67.8374 77.4849H68.4715L73.3812 83.6518V77.4849H74.3853V85.7637H73.7512L68.8414 79.5968V85.7637H67.8374V77.4849Z" fill="#094952"/>
<path d="M77.4794 84.9392L77.7244 83.917C78.2192 84.4571 79.0455 85.0501 80.2273 85.0501C81.2025 85.0501 81.9616 84.5004 81.9616 83.6036C81.9616 82.7598 81.5484 82.2921 80.0111 81.8774C78.4594 81.4628 77.7148 80.6238 77.7148 79.4618C77.7148 78.2997 78.6756 77.3113 80.3666 77.3113C81.313 77.3113 82.1537 77.697 82.6053 78.0683L82.3555 78.9362C81.8078 78.536 81.0344 78.2033 80.3618 78.2033C79.329 78.2033 78.7381 78.6855 78.7381 79.4569C78.7381 80.05 79.108 80.5466 80.4003 80.8938C82.1729 81.3615 82.9848 82.1378 82.9848 83.5024C82.9848 85.1176 81.6397 85.947 80.2225 85.947C78.8053 85.947 77.9262 85.4069 77.4746 84.9392H77.4794Z" fill="#094952"/>
<path d="M87.9954 78.4106H85.0649V77.4849H92.0212V78.4106H89.0955V85.7637H87.9954V78.4106Z" fill="#094952"/>
<path d="M94.7832 81.9449V77.4897H95.9121V81.9594C95.9121 84.1002 96.873 85.0357 98.3862 85.0357C99.8995 85.0357 100.86 84.0954 100.86 81.9594V77.4897H101.932V81.9449C101.932 84.7464 100.49 86 98.3574 86C96.2244 86 94.7832 84.7464 94.7832 81.9449Z" fill="#094952"/>
<path d="M105.453 77.4849H108.009C111.213 77.4849 112.602 79.346 112.602 81.6219C112.602 83.8977 111.213 85.7589 108.009 85.7589H105.453V77.48V77.4849ZM108.023 84.7994C110.704 84.7994 111.458 83.2806 111.458 81.6267C111.458 79.9729 110.704 78.454 108.023 78.454H106.553V84.7994H108.023Z" fill="#094952"/>
<path d="M115.724 77.4849H116.824V85.7637H115.724V77.4849Z" fill="#094952"/>
<path d="M119.942 81.6267C119.942 79.0857 121.796 77.2534 124.328 77.2534C126.86 77.2534 128.7 79.0905 128.7 81.6267C128.7 84.1629 126.845 86 124.328 86C121.811 86 119.942 84.1629 119.942 81.6267ZM127.556 81.6267C127.556 79.6112 126.211 78.1792 124.328 78.1792C122.445 78.1792 121.085 79.6161 121.085 81.6267C121.085 83.6374 122.43 85.0742 124.328 85.0742C126.226 85.0742 127.556 83.6277 127.556 81.6267Z" fill="#094952"/>
<path d="M89.0378 5.92106C88.9754 7.95582 88.4373 9.6386 86.8616 10.791C83.9936 12.8884 79.8093 11.0706 79.3241 7.52669C79.0791 5.73784 79.3337 4.01167 80.4963 2.55069C81.6925 1.04149 83.2826 0.462887 85.1514 0.863089C87.1835 1.30186 88.3413 2.6857 88.8553 4.64331C88.9754 5.10137 88.9898 5.58836 89.033 5.92106H89.0378Z" fill="#094952"/>
<path d="M72.6799 5.18334C72.6175 7.2181 72.0794 8.90088 70.5037 10.0533C67.6357 12.1507 63.4514 10.3329 62.9662 6.78897C62.7212 5.00011 62.9758 3.27394 64.1384 1.81296C65.3346 0.303768 66.9247 -0.274837 68.7935 0.125365C70.8256 0.56414 71.9833 1.94797 72.4974 3.90558C72.6175 4.36365 72.6319 4.85064 72.6751 5.18334H72.6799Z" fill="#094952"/>
<path d="M70.9652 36.7029C71.1286 36.8861 71.2919 37.0645 71.2919 37.0645C71.5129 37.3056 71.7435 37.5466 71.9933 37.7926C72.0798 37.8793 72.171 37.9661 72.2575 38.0481C72.9493 37.5804 73.7179 37.0018 74.5106 36.293C75.3273 35.5649 75.9998 34.8417 76.5475 34.1859C76.3073 33.9111 76.0575 33.6314 75.7933 33.3469C75.4041 32.9275 75.015 32.5321 74.6355 32.1656C74.6355 32.1656 73.9869 31.4279 73.4057 30.7673C71.6858 28.8242 70.3791 26.6592 69.8507 24.0796C69.2166 20.9937 70.6241 18.9831 73.3528 18.7372C73.5354 18.7227 73.7516 18.5491 73.862 18.3852C74.3088 17.7439 74.746 17.0881 75.1351 16.4083C75.2408 16.2299 75.284 15.8924 75.1831 15.7332C73.9869 13.7563 72.344 12.4159 69.9372 12.3821C67.1556 12.3484 64.547 14.6001 63.788 17.6571C62.9953 20.8491 63.5094 23.9639 64.5855 26.9871C65.9162 30.7336 68.3903 33.7568 70.9652 36.698V36.7029Z" fill="#094952"/>
<path d="M82.5091 40.5409C82.3506 40.3529 82.1968 40.1745 82.1968 40.1745C81.8461 39.7791 81.5147 39.4464 81.2312 39.1812C80.6643 39.7212 80.0686 40.2709 79.4441 40.8254C78.7523 41.4329 78.075 42.0067 77.4072 42.5419C77.6282 42.812 77.9741 43.2363 78.4161 43.7522C78.6322 44.0077 78.786 44.1861 78.8004 44.2054C80.5779 46.3752 81.7549 48.6993 82.3458 51.1583C82.6916 52.6048 83.5083 55.9222 82.2401 59.4227C81.4666 61.5539 80.1215 63.2126 80.8805 64.6688C81.2504 65.3776 81.9518 65.7103 82.0767 65.7681C83.3594 66.3515 84.6949 65.6331 85.0312 65.4354C85.3146 65.2667 86.3907 64.7266 87.1258 62.1277C88.6006 56.9155 87.8848 52.3397 87.8464 52.0504C87.2651 47.6722 85.3242 43.8776 82.5139 40.5409H82.5091Z" fill="#094952"/>
<path d="M76.5712 42.3539C73.6648 44.5912 70.9793 47.0551 68.9232 50.1265C66.3242 54.0128 65.8678 58.2125 67.1937 62.6581C67.4147 63.3958 67.7318 64.1769 67.1409 64.9243C66.1273 66.2021 64.2008 66.2117 63.2256 64.8954C62.1543 63.4489 61.6835 61.7613 61.4626 60.0062C60.6315 53.3811 63.1872 47.9374 67.5973 43.2941C69.5525 41.2353 71.8777 39.5235 74.0491 37.672C76.7153 35.4058 79.1365 32.9082 81.2263 30.1019C82.5906 28.2649 83.4794 26.1963 83.6908 23.8916C83.9358 21.2107 81.9949 19.446 80.0637 19.5954C79.1269 19.6678 78.3775 20.1355 77.7386 20.7719C77.1285 21.3795 76.6192 22.0931 75.9995 22.6958C75.6008 23.0863 75.1252 23.4528 74.616 23.6601C73.7176 24.0266 73.0739 23.4383 73.17 22.4643C73.2997 21.0998 73.8954 19.9329 74.6832 18.8577C76.1292 16.8808 77.7242 15.0534 80.0781 14.1421C85.0839 12.1989 88.5524 15.1016 89.422 19.5135C90.3443 24.1712 88.9319 28.3468 86.4291 32.2138C84.6227 35.0008 82.7011 37.0548 81.1302 38.376" fill="#E89A86"/>
<path d="M82.0333 55.4207C80.6305 55.2761 78.7329 55.1941 76.5134 55.4207C76.0138 55.4689 74.4141 55.6763 72.2715 56.1826C68.3514 57.1131 65.2048 58.6416 62.894 60.0447C64.1767 61.8095 65.4594 63.5694 66.7421 65.3342C68.1112 64.1818 70.446 62.5038 73.7415 61.3948C76.7873 60.3678 79.4535 60.2328 81.183 60.281C81.4376 59.6879 81.7114 58.902 81.8843 57.9521C82.0621 56.9589 82.0765 56.0909 82.0333 55.4304V55.4207Z" fill="#E89A86"/>
<path d="M91.3723 57.2626C91.3723 57.2626 91.2762 57.2385 90.7814 57.118C90.7237 57.1035 90.3106 57.0022 90.2722 56.9926C90.0512 56.9396 89.59 56.8238 88.7109 56.602C88.6676 57.3349 88.6004 58.1209 88.4851 58.9502C88.3794 59.712 88.2497 60.4257 88.1104 61.0862C89.9023 62.2917 91.9007 62.2772 92.9 61.2791C93.4476 60.7342 93.8464 59.741 93.5533 58.9068C93.145 57.74 91.5116 57.3012 91.3771 57.2674L91.3723 57.2626Z" fill="#E89A86"/>
</g>
<defs>
<clipPath id="clip0_34_294">
<rect width="151" height="86" fill="white"/>
</clipPath>
</defs>
</svg>
